<svg xmlns="http://www.w3.org/2000/svg" xmlns:xlink="http://www.w3.org/1999/xlink" viewBox="0 0 1384.85 418.67"><defs><style>.cls-1{fill:url(#新規グラデーションスウォッチ_1);}.cls-2{fill:url(#新規グラデーションスウォッチ_1-2);}.cls-3{fill:url(#新規グラデーションスウォッチ_1-3);}.cls-4{fill:url(#新規グラデーションスウォッチ_1-4);}.cls-5{fill:url(#新規グラデーションスウォッチ_1-5);}.cls-6{fill:url(#新規グラデーションスウォッチ_1-6);}.cls-7{fill:url(#新規グラデーションスウォッチ_1-7);}.cls-8{fill:url(#新規グラデーションスウォッチ_1-8);}.cls-9{fill:url(#新規グラデーションスウォッチ_1-9);}.cls-10{fill:url(#新規グラデーションスウォッチ_1-10);}.cls-11{fill:url(#新規グラデーションスウォッチ_1-11);}.cls-12{fill:url(#新規グラデーションスウォッチ_1-12);}.cls-13{fill:url(#新規グラデーションスウォッチ_1-13);}.cls-14{fill:url(#新規グラデーションスウォッチ_1-14);}.cls-15{fill:url(#新規グラデーションスウォッチ_1-15);}.cls-16{fill:url(#新規グラデーションスウォッチ_1-16);}.cls-17{fill:url(#新規グラデーションスウォッチ_1-17);}.cls-18{fill:url(#新規グラデーションスウォッチ_1-18);}.cls-19{fill:url(#新規グラデーションスウォッチ_1-19);}.cls-20{fill:url(#新規グラデーションスウォッチ_1-20);}.cls-21{fill:url(#新規グラデーションスウォッチ_1-21);}.cls-22{fill:url(#新規グラデーションスウォッチ_1-22);}.cls-23{fill:url(#新規グラデーションスウォッチ_1-23);}</style><linearGradient id="新規グラデーションスウォッチ_1" y1="18.61" x2="210" y2="18.61" gradientUnits="userSpaceOnUse"><stop offset="0" stop-color="#6fe0f4"/><stop offset="0.11" stop-color="#66d8f1"/><stop offset="0.3" stop-color="#4cc3e8"/><stop offset="0.54" stop-color="#23a0d9"/><stop offset="0.57" stop-color="#1e9cd7"/><stop offset="0.87" stop-color="#0075be"/><stop offset="0.99" stop-color="#005b97"/></linearGradient><linearGradient id="新規グラデーションスウォッチ_1-2" x1="37.75" y1="272.17" x2="270.49" y2="272.17" xlink:href="#新規グラデーションスウォッチ_1"/><linearGradient id="新規グラデーションスウォッチ_1-3" x1="0" y1="190.05" x2="236.05" y2="190.05" xlink:href="#新規グラデーションスウォッチ_1"/><linearGradient id="新規グラデーションスウォッチ_1-4" x1="1033.91" y1="228.24" x2="1164.23" y2="228.24" xlink:href="#新規グラデーションスウォッチ_1"/><linearGradient id="新規グラデーションスウォッチ_1-5" x1="1112.67" y1="228.02" x2="1244.33" y2="228.02" xlink:href="#新規グラデーションスウォッチ_1"/><linearGradient id="新規グラデーションスウォッチ_1-6" x1="1033.82" y1="327.51" x2="1196" y2="327.51" xlink:href="#新規グラデーションスウォッチ_1"/><linearGradient id="新規グラデーションスウォッチ_1-7" x1="1034" y1="282.34" x2="1244" y2="282.34" xlink:href="#新規グラデーションスウォッチ_1"/><linearGradient id="新規グラデーションスウォッチ_1-8" x1="234.91" y1="228.24" x2="365.23" y2="228.24" xlink:href="#新規グラデーションスウォッチ_1"/><linearGradient id="新規グラデーションスウォッチ_1-9" x1="313.67" y1="228.02" x2="445.33" y2="228.02" xlink:href="#新規グラデーションスウォッチ_1"/><linearGradient id="新規グラデーションスウォッチ_1-10" x1="234.82" y1="327.51" x2="397" y2="327.51" xlink:href="#新規グラデーションスウォッチ_1"/><linearGradient id="新規グラデーションスウォッチ_1-11" x1="235" y1="282.34" x2="445" y2="282.34" xlink:href="#新規グラデーションスウォッチ_1"/><linearGradient id="新規グラデーションスウォッチ_1-12" x1="466" y1="350.61" x2="646" y2="350.61" xlink:href="#新規グラデーションスウォッチ_1"/><linearGradient id="新規グラデーションスウォッチ_1-13" x1="466.17" y1="280.84" x2="503.17" y2="280.84" gradientTransform="translate(203.83 765.5) rotate(-90)" xlink:href="#新規グラデーションスウォッチ_1"/><linearGradient id="新規グラデーションスウォッチ_1-14" x1="468.57" y1="210.61" x2="646" y2="210.61" xlink:href="#新規グラデーションスウォッチ_1"/><linearGradient id="新規グラデーションスウォッチ_1-15" x1="609" y1="279.97" x2="646" y2="279.97" gradientTransform="translate(347.53 907.47) rotate(-90)" xlink:href="#新規グラデーションスウォッチ_1"/><linearGradient id="新規グラデーションスウォッチ_1-16" x1="653.93" y1="209.57" x2="749.14" y2="209.57" xlink:href="#新規グラデーションスウォッチ_1"/><linearGradient id="新規グラデーションスウォッチ_1-17" x1="773" y1="272.31" x2="810" y2="272.31" gradientTransform="translate(519.19 1063.81) rotate(-90)" xlink:href="#新規グラデーションスウォッチ_1"/><linearGradient id="新規グラデーションスウォッチ_1-18" x1="1269.68" y1="223.38" x2="1384.85" y2="223.38" gradientTransform="translate(2107.83 1319.84) rotate(-135)" xlink:href="#新規グラデーションスウォッチ_1"/><linearGradient id="新規グラデーションスウォッチ_1-19" x1="1268" y1="272.81" x2="1305" y2="272.81" gradientTransform="translate(1013.69 1559.31) rotate(-90)" xlink:href="#新規グラデーションスウォッチ_1"/><linearGradient id="新規グラデーションスウォッチ_1-20" x1="747.73" y1="119.23" x2="816.1" y2="119.23" gradientTransform="translate(1250.51 756.45) rotate(-135)" xlink:href="#新規グラデーションスウォッチ_1"/><linearGradient id="新規グラデーションスウォッチ_1-21" x1="1045.53" y1="273.04" x2="855.02" y2="273.04" gradientTransform="translate(471.4 -591.98) rotate(45)" xlink:href="#新規グラデーションスウォッチ_1"/><linearGradient id="新規グラデーションスウォッチ_1-22" x1="854" y1="361.34" x2="1041.42" y2="361.34" xlink:href="#新規グラデーションスウォッチ_1"/><linearGradient id="新規グラデーションスウォッチ_1-23" x1="850" y1="185.34" x2="1045.42" y2="185.34" xlink:href="#新規グラデーションスウォッチ_1"/></defs><g id="レイヤー_2" data-name="レイヤー 2"><g id="レイヤー_1-2" data-name="レイヤー 1"><rect class="cls-1" y="0.11" width="210" height="37"/><polygon class="cls-2" points="226.28 380.83 37.75 192.31 66.56 163.5 270.49 378.62 226.28 380.83"/><polygon class="cls-3" points="236.05 26.16 209.89 0 40 169.89 40 0.11 0 0.11 0 380.11 40 380.11 40 222.22 236.05 26.16"/><polygon class="cls-4" points="1164.23 191.4 1060.07 289.8 1033.91 265.08 1138.07 166.69 1164.23 191.4"/><polygon class="cls-5" points="1218.16 290.21 1112.67 190.55 1138.83 165.84 1244.33 265.49 1218.16 290.21"/><polygon class="cls-6" points="1133.62 344.47 1059.98 274.92 1033.82 299.64 1119.01 380.1 1120.88 378.33 1120.88 379.43 1196 379.43 1196 344.47 1133.62 344.47"/><rect class="cls-7" x="1034" y="264.86" width="210" height="34.95"/><polygon class="cls-8" points="365.23 191.4 261.07 289.8 234.91 265.08 339.07 166.69 365.23 191.4"/><polygon class="cls-9" points="419.17 290.21 313.67 190.55 339.83 165.84 445.33 265.49 419.17 290.21"/><polygon class="cls-10" points="334.62 344.47 260.99 274.92 234.82 299.64 320.01 380.1 321.88 378.33 321.88 379.43 397 379.43 397 344.47 334.62 344.47"/><rect class="cls-11" x="235" y="264.86" width="210" height="34.95"/><rect class="cls-12" x="466" y="332.11" width="180" height="37"/><rect class="cls-13" x="396.67" y="262.34" width="176" height="37" transform="translate(765.5 -203.83) rotate(90)"/><rect class="cls-14" x="468.57" y="192.11" width="177.43" height="37"/><rect class="cls-15" x="525.36" y="261.47" width="204.27" height="37" transform="translate(907.47 -347.53) rotate(90)"/><polygon class="cls-16" points="720 363.37 720 40.84 719.81 40.84 720.14 40.51 680.09 0.47 653.93 26.63 683 55.7 683 378.11 683.45 378.11 682.93 378.63 722.98 418.67 749.14 392.51 720 363.37"/><rect class="cls-17" x="684.03" y="253.81" width="214.94" height="37" transform="translate(1063.81 -519.19) rotate(90)"/><rect class="cls-18" x="1264.33" y="204.88" width="125.87" height="37" transform="translate(2423.73 -557.19) rotate(135)"/><rect class="cls-19" x="1179.53" y="254.31" width="213.94" height="37" transform="translate(1559.31 -1013.69) rotate(90)"/><rect class="cls-20" x="752.07" y="100.73" width="59.69" height="37" transform="translate(1419.13 -349.35) rotate(135)"/><rect class="cls-21" x="834.07" y="254.54" width="232.42" height="37" transform="translate(85.26 751.92) rotate(-45)"/><rect class="cls-22" x="854" y="342.84" width="187.42" height="37"/><rect class="cls-23" x="850" y="166.84" width="195.42" height="37"/></g></g></svg>